<svg xmlns="http://www.w3.org/2000/svg" width="1100" height="396" viewBox="0 0 1100 396">
<style>text{font:13px sans-serif;fill:#202124}.axis{stroke:#9aa0a6}.grid{stroke:#e5e7eb}.bar{fill:#4f86c6}.label{font-weight:600}</style>
<text x="120" y="22" font-size="16" class="label">Goal coverage</text>
<text x="1076" y="22" text-anchor="end">wall time: 335.2s</text>
<line x1="120" y1="60" x2="1076" y2="60" class="grid"/>
<text x="108" y="65" text-anchor="end" class="label">G000</text>
<rect x="120.00" y="48" width="802.77" height="24" rx="3" class="bar"/>
<title>G000: 281.5s</title>
<text x="930.77" y="65">281.5s</text>
<line x1="120" y1="94" x2="1076" y2="94" class="grid"/>
<text x="108" y="99" text-anchor="end" class="label">G001</text>
<rect x="247.05" y="82" width="360.93" height="24" rx="3" class="bar"/>
<title>G001: 126.5s</title>
<text x="615.98" y="99">126.5s</text>
<line x1="120" y1="128" x2="1076" y2="128" class="grid"/>
<text x="108" y="133" text-anchor="end" class="label">G002</text>
<rect x="610.91" y="116" width="36.33" height="24" rx="3" class="bar"/>
<title>G002: 12.7s</title>
<text x="655.24" y="133">12.7s</text>
<line x1="120" y1="162" x2="1076" y2="162" class="grid"/>
<text x="108" y="167" text-anchor="end" class="label">G003</text>
<rect x="610.94" y="150" width="155.35" height="24" rx="3" class="bar"/>
<title>G003: 54.5s</title>
<text x="774.29" y="167">54.5s</text>
<line x1="120" y1="196" x2="1076" y2="196" class="grid"/>
<text x="108" y="201" text-anchor="end" class="label">G004</text>
<rect x="610.98" y="184" width="198.54" height="24" rx="3" class="bar"/>
<title>G004: 69.6s</title>
<text x="817.52" y="201">69.6s</text>
<line x1="120" y1="230" x2="1076" y2="230" class="grid"/>
<text x="108" y="235" text-anchor="end" class="label">G005</text>
<rect x="812.50" y="218" width="34.65" height="24" rx="3" class="bar"/>
<title>G005: 12.1s</title>
<text x="855.15" y="235">12.1s</text>
<line x1="120" y1="264" x2="1076" y2="264" class="grid"/>
<text x="108" y="269" text-anchor="end" class="label">G006</text>
<rect x="812.51" y="252" width="47.29" height="24" rx="3" class="bar"/>
<title>G006: 16.6s</title>
<text x="867.80" y="269">16.6s</text>
<line x1="120" y1="298" x2="1076" y2="298" class="grid"/>
<text x="108" y="303" text-anchor="end" class="label">G007</text>
<rect x="862.46" y="286" width="136.00" height="24" rx="3" class="bar"/>
<title>G007: 47.7s</title>
<text x="1006.46" y="303">47.7s</text>
<line x1="120" y1="332" x2="1076" y2="332" class="grid"/>
<text x="108" y="337" text-anchor="end" class="label">G008</text>
<rect x="1001.59" y="320" width="74.41" height="24" rx="3" class="bar"/>
<title>G008: 26.1s</title>
<text x="1076.00" y="337">26.1s</text>
<line x1="120" y1="40" x2="120" y2="366" class="axis"/>
<line x1="120" y1="366" x2="1076" y2="366" class="axis"/>
<text x="120" y="386">0s</text>
<text x="1076" y="386" text-anchor="end">335.2s</text>
</svg>
