<svg xmlns="http://www.w3.org/2000/svg" width="1100" height="396" viewBox="0 0 1100 396">
<style>text{font:13px sans-serif;fill:#202124}.axis{stroke:#9aa0a6}.grid{stroke:#e5e7eb}.bar{fill:#4f86c6}.label{font-weight:600}</style>
<text x="120" y="22" font-size="16" class="label">Goal coverage</text>
<text x="1076" y="22" text-anchor="end">wall time: 308.1s</text>
<line x1="120" y1="60" x2="1076" y2="60" class="grid"/>
<text x="108" y="65" text-anchor="end" class="label">G000</text>
<rect x="120.00" y="48" width="475.46" height="24" rx="3" class="bar"/>
<title>G000: 153.2s</title>
<text x="603.46" y="65">153.2s</text>
<line x1="120" y1="94" x2="1076" y2="94" class="grid"/>
<text x="108" y="99" text-anchor="end" class="label">G001</text>
<rect x="281.09" y="82" width="124.94" height="24" rx="3" class="bar"/>
<title>G001: 40.3s</title>
<text x="414.02" y="99">40.3s</text>
<line x1="120" y1="128" x2="1076" y2="128" class="grid"/>
<text x="108" y="133" text-anchor="end" class="label">G002</text>
<rect x="409.19" y="116" width="49.79" height="24" rx="3" class="bar"/>
<title>G002: 16.0s</title>
<text x="466.98" y="133">16.0s</text>
<line x1="120" y1="162" x2="1076" y2="162" class="grid"/>
<text x="108" y="167" text-anchor="end" class="label">G003</text>
<rect x="409.01" y="150" width="268.80" height="24" rx="3" class="bar"/>
<title>G003: 86.6s</title>
<text x="685.80" y="167">86.6s</text>
<line x1="120" y1="196" x2="1076" y2="196" class="grid"/>
<text x="108" y="201" text-anchor="end" class="label">G004</text>
<rect x="409.16" y="184" width="221.10" height="24" rx="3" class="bar"/>
<title>G004: 71.3s</title>
<text x="638.26" y="201">71.3s</text>
<line x1="120" y1="230" x2="1076" y2="230" class="grid"/>
<text x="108" y="235" text-anchor="end" class="label">G005</text>
<rect x="680.51" y="218" width="57.00" height="24" rx="3" class="bar"/>
<title>G005: 18.4s</title>
<text x="745.51" y="235">18.4s</text>
<line x1="120" y1="264" x2="1076" y2="264" class="grid"/>
<text x="108" y="269" text-anchor="end" class="label">G006</text>
<rect x="680.59" y="252" width="55.21" height="24" rx="3" class="bar"/>
<title>G006: 17.8s</title>
<text x="743.80" y="269">17.8s</text>
<line x1="120" y1="298" x2="1076" y2="298" class="grid"/>
<text x="108" y="303" text-anchor="end" class="label">G007</text>
<rect x="740.08" y="286" width="162.38" height="24" rx="3" class="bar"/>
<title>G007: 52.3s</title>
<text x="910.46" y="303">52.3s</text>
<line x1="120" y1="332" x2="1076" y2="332" class="grid"/>
<text x="108" y="337" text-anchor="end" class="label">G008</text>
<rect x="905.79" y="320" width="170.21" height="24" rx="3" class="bar"/>
<title>G008: 54.9s</title>
<text x="1076.00" y="337">54.9s</text>
<line x1="120" y1="40" x2="120" y2="366" class="axis"/>
<line x1="120" y1="366" x2="1076" y2="366" class="axis"/>
<text x="120" y="386">0s</text>
<text x="1076" y="386" text-anchor="end">308.1s</text>
</svg>
